<svg width="12" height="11" viewBox="0 0 12 11" fill="none" xmlns="http://www.w3.org/2000/svg">
<path d="M1.09231 11L5.02831 6.024L2.75631 2.52C2.58565 2.24267 2.37765 1.976 2.13231 1.72C1.88698 1.45333 1.63098 1.23467 1.36431 1.064C1.10831 0.882666 0.857646 0.781333 0.612312 0.759999V0.44H2.37231C2.77765 0.44 3.14031 0.530666 3.46031 0.712C3.79098 0.893333 4.08431 1.11733 4.34031 1.384C4.59631 1.65067 4.80965 1.92267 4.98031 2.2L6.37231 4.344L9.46031 0.44H10.5003L6.83631 5.064L9.34831 8.92C9.52965 9.19733 9.73765 9.46933 9.97231 9.736C10.2176 9.992 10.4736 10.2053 10.7403 10.376C11.007 10.5467 11.2576 10.648 11.4923 10.68V11H9.73231C9.33765 11 8.97498 10.9093 8.64431 10.728C8.31365 10.5467 8.02031 10.3227 7.76431 10.056C7.50831 9.77867 7.29498 9.50667 7.12431 9.24L5.50831 6.744L2.13231 11H1.09231Z" fill="white"/>
</svg>
